<?xml version="1.0" encoding="UTF-8" standalone="no"?>
<!-- Generator: Adobe Illustrator 18.0.0, SVG Export Plug-In . SVG Version: 6.00 Build 0)  -->

<svg
   xmlns:dc="http://purl.org/dc/elements/1.1/"
   xmlns:cc="http://creativecommons.org/ns#"
   xmlns:rdf="http://www.w3.org/1999/02/22-rdf-syntax-ns#"
   xmlns:svg="http://www.w3.org/2000/svg"
   xmlns="http://www.w3.org/2000/svg"
   xmlns:sodipodi="http://sodipodi.sourceforge.net/DTD/sodipodi-0.dtd"
   xmlns:inkscape="http://www.inkscape.org/namespaces/inkscape"
   version="1.1"
   id="Capa_1"
   x="0px"
   y="0px"
   viewBox="0 0 612 792"
   enable-background="new 0 0 612 792"
   xml:space="preserve"
   inkscape:version="0.48.4 r9939"
   width="100%"
   height="100%"
   sodipodi:docname="warning28.svg"><metadata
     id="metadata3048"><rdf:RDF><cc:Work
         rdf:about=""><dc:format>image/svg+xml</dc:format><dc:type
           rdf:resource="http://purl.org/dc/dcmitype/StillImage" /></cc:Work></rdf:RDF></metadata><defs
     id="defs3046" /><sodipodi:namedview
     pagecolor="#ffffff"
     bordercolor="#666666"
     borderopacity="1"
     objecttolerance="10"
     gridtolerance="10"
     guidetolerance="10"
     inkscape:pageopacity="0"
     inkscape:pageshadow="2"
     inkscape:window-width="1855"
     inkscape:window-height="1056"
     id="namedview3044"
     showgrid="false"
     inkscape:zoom="1.1477273"
     inkscape:cx="306"
     inkscape:cy="396"
     inkscape:window-x="65"
     inkscape:window-y="24"
     inkscape:window-maximized="1"
     inkscape:current-layer="Capa_1" /><title
     id="title3032">icon 61 warning</title><desc
     id="desc3034">Created with Sketch.</desc><g
     id="g3036"
     style="fill:#ff0000"><path
       d="M325.1,300.4c-11.5,0-19.1,9.6-19.1,19.1v114.8c0,11.5,7.6,19.1,19.1,19.1s19.1-9.6,19.1-19.1V319.5   C344.2,308,336.6,300.4,325.1,300.4z"
       id="path3038"
       style="fill:#ff0000" /><circle
       cx="325.1"
       cy="510.8"
       r="19.1"
       id="circle3040"
       style="fill:#ff0000" /><path
       d="M562.3,522.2L355.7,187.5c-17.2-26.8-44-26.8-61.2,0L88,522.2c-21,36.3-5.7,65,36.3,65H524   C568,587.2,583.3,558.6,562.3,522.2z M529.8,568.1H120.5c-21,0-28.7-15.3-17.2-32.5l210.4-340.4c5.7-11.5,17.2-11.5,24.9,0   l210.4,340.4C558.5,552.8,550.8,568.1,529.8,568.1z"
       id="path3042"
       style="fill:#ff0000" /></g></svg>